<svg width="940" height="495" viewBox="0 0 940 495" fill="none" xmlns="http://www.w3.org/2000/svg">
<path d="M10.5644 440.524L82.7466 385.428L83.685 384.713C84.1623 384.347 84.7331 384.124 85.3317 384.069C85.9304 384.014 86.5325 384.128 87.0689 384.4C87.6054 384.672 88.0543 385.09 88.3641 385.606C88.6738 386.121 88.8319 386.714 88.8201 387.315L87.3877 467.121C87.377 467.634 87.2431 468.138 86.9974 468.588C86.7516 469.039 86.4012 469.424 85.9756 469.711C85.5488 469.999 85.0583 470.179 84.5463 470.235C84.0344 470.291 83.5165 470.221 83.0373 470.032L49.8977 457.069C49.6599 456.973 49.4049 456.927 49.1485 456.934C48.8922 456.941 48.6401 457.001 48.4081 457.11C48.0905 457.254 47.8181 457.481 47.62 457.768C47.4218 458.055 47.3054 458.391 47.2832 458.739L46.6929 469.27C46.6664 469.966 46.4079 470.633 45.9585 471.165C45.5091 471.697 44.8946 472.063 44.213 472.206L44.188 472.211C43.5058 472.371 42.7894 472.297 42.154 472.001C41.5187 471.704 41.0013 471.203 40.685 470.577L30.664 451.617C30.5395 451.38 30.3677 451.171 30.1592 451.003C29.944 450.842 29.6995 450.723 29.4392 450.655L11.7245 446.163C11.1422 446.016 10.6132 445.707 10.1981 445.272C9.78303 444.838 9.49864 444.295 9.37756 443.707C9.25647 443.118 9.30357 442.507 9.51349 441.945C9.7234 441.382 10.0876 440.89 10.5644 440.524L10.5644 440.524ZM12.0349 444.928L29.7497 449.419C29.9793 449.475 30.2019 449.557 30.4133 449.663L83.7029 387.086C83.7495 387.03 83.8016 386.978 83.8582 386.933C84.0879 386.743 84.3767 386.639 84.6749 386.639C84.973 386.639 85.2618 386.744 85.4911 386.935C85.7204 387.125 85.876 387.39 85.9308 387.684C85.9856 387.977 85.9363 388.28 85.7914 388.541L49.3373 455.657C49.689 455.671 50.0357 455.746 50.3621 455.878L83.5015 468.841C83.7889 468.953 84.099 468.994 84.4055 468.96C84.712 468.927 85.0059 468.82 85.2622 468.648C85.5184 468.477 85.7295 468.246 85.8775 467.975C86.0254 467.705 86.1058 467.402 86.1119 467.094L87.5443 387.288C87.5493 386.928 87.4531 386.574 87.2667 386.266C87.0804 385.958 86.8113 385.709 86.4902 385.546C86.1692 385.384 85.809 385.315 85.4507 385.347C85.0924 385.379 84.7504 385.512 84.4637 385.729L83.5036 386.462L11.3435 441.541C11.0571 441.76 10.8382 442.055 10.7118 442.393C10.5853 442.73 10.5566 443.097 10.6287 443.45C10.7009 443.804 10.871 444.13 11.1197 444.391C11.3684 444.652 11.6855 444.838 12.0349 444.928V444.928Z" fill="#6C63FF"/>
<path d="M10.5644 440.524L82.7466 385.428L83.685 384.713C84.1623 384.347 84.7331 384.124 85.3317 384.069C85.9304 384.014 86.5325 384.128 87.0689 384.4C87.6054 384.672 88.0543 385.09 88.3641 385.606C88.6738 386.121 88.8319 386.714 88.8201 387.315L87.3877 467.121C87.377 467.634 87.2431 468.138 86.9974 468.588C86.7516 469.039 86.4012 469.424 85.9756 469.711C85.5488 469.999 85.0583 470.179 84.5463 470.235C84.0344 470.291 83.5165 470.221 83.0373 470.032L49.8977 457.069C49.6599 456.973 49.4049 456.927 49.1485 456.934C48.8922 456.941 48.6401 457.001 48.4081 457.11C48.0905 457.254 47.8181 457.481 47.62 457.768C47.4218 458.055 47.3054 458.391 47.2832 458.739L46.6929 469.27C46.6664 469.966 46.4079 470.633 45.9585 471.165C45.5091 471.697 44.8946 472.063 44.213 472.206L44.188 472.211C43.5058 472.371 42.7894 472.297 42.154 472.001C41.5187 471.704 41.0013 471.203 40.685 470.577L30.664 451.617C30.5395 451.38 30.3677 451.171 30.1592 451.003C29.944 450.842 29.6995 450.723 29.4392 450.655L11.7245 446.163C11.1422 446.016 10.6132 445.707 10.1981 445.272C9.78303 444.838 9.49864 444.295 9.37756 443.707C9.25647 443.118 9.30357 442.507 9.51349 441.945C9.7234 441.382 10.0876 440.89 10.5644 440.524L10.5644 440.524ZM12.0349 444.928L29.7497 449.419C29.9793 449.475 30.2019 449.557 30.4133 449.663C30.603 449.756 30.7822 449.869 30.9478 450.001C31.1193 450.134 31.2762 450.285 31.4157 450.452L31.4171 450.458C31.5632 450.631 31.6893 450.821 31.7931 451.022L41.8139 469.982C42.0006 470.36 42.3103 470.663 42.6919 470.841C43.0734 471.019 43.5043 471.062 43.9134 470.963L43.9259 470.96C44.3367 470.879 44.7079 470.661 44.9793 470.342C45.2507 470.023 45.4064 469.622 45.4212 469.203L46.01 458.665C46.0407 458.123 46.2094 457.598 46.5 457.139C46.7907 456.681 47.1936 456.304 47.6707 456.045L47.6768 456.044C47.7413 456.01 47.8056 455.975 47.8712 455.948C48.3289 455.733 48.8321 455.633 49.3373 455.657C49.689 455.671 50.0357 455.746 50.3621 455.878L83.5015 468.841C83.7889 468.953 84.099 468.994 84.4055 468.96C84.712 468.927 85.0059 468.82 85.2622 468.648C85.5184 468.477 85.7295 468.246 85.8774 467.975C86.0254 467.705 86.1058 467.402 86.1119 467.094L87.5443 387.288C87.5493 386.928 87.4531 386.574 87.2667 386.266C87.0804 385.958 86.8113 385.709 86.4902 385.546C86.1692 385.384 85.809 385.315 85.4507 385.347C85.0924 385.379 84.7504 385.512 84.4637 385.729L83.5036 386.462L11.3435 441.541C11.0571 441.76 10.8382 442.055 10.7118 442.393C10.5853 442.73 10.5566 443.097 10.6287 443.45C10.7009 443.804 10.871 444.13 11.1197 444.391C11.3684 444.652 11.6855 444.838 12.0349 444.928V444.928Z" fill="#918AFF"/>
<path d="M30.2111 449.898L31.1834 450.727L31.4172 450.458L31.4158 450.452L84.6656 387.93L47.6768 456.044L47.6708 456.045L47.5751 456.23L48.6948 456.843L49.3373 455.657L85.7914 388.541C85.9364 388.28 85.9857 387.977 85.9308 387.684C85.876 387.39 85.7205 387.125 85.4911 386.935C85.2618 386.744 84.9731 386.639 84.6749 386.639C84.3767 386.639 84.0879 386.743 83.8583 386.933C83.8016 386.978 83.7496 387.03 83.7029 387.086L30.4133 449.663L30.2111 449.898Z" fill="#918AFF"/>
<path d="M929.367 194.524L857.184 139.428L856.246 138.713C855.769 138.347 855.198 138.124 854.599 138.069C854.001 138.014 853.399 138.128 852.862 138.4C852.326 138.672 851.877 139.09 851.567 139.606C851.257 140.121 851.099 140.714 851.111 141.315L852.543 221.121C852.554 221.634 852.688 222.138 852.934 222.588C853.179 223.039 853.53 223.424 853.956 223.711C854.382 223.999 854.873 224.179 855.385 224.235C855.897 224.291 856.415 224.221 856.894 224.032L890.033 211.069C890.271 210.973 890.526 210.927 890.783 210.934C891.039 210.941 891.291 211.001 891.523 211.11C891.841 211.254 892.113 211.481 892.311 211.768C892.509 212.055 892.626 212.391 892.648 212.739L893.238 223.27C893.265 223.966 893.523 224.633 893.973 225.165C894.422 225.697 895.036 226.063 895.718 226.206L895.743 226.211C896.425 226.371 897.142 226.297 897.777 226.001C898.412 225.704 898.93 225.203 899.246 224.577L909.267 205.617C909.392 205.38 909.563 205.171 909.772 205.003C909.987 204.842 910.232 204.723 910.492 204.655L928.207 200.163C928.789 200.016 929.318 199.707 929.733 199.272C930.148 198.838 930.432 198.295 930.554 197.707C930.675 197.118 930.628 196.507 930.418 195.945C930.208 195.382 929.843 194.89 929.367 194.524L929.367 194.524ZM927.896 198.928L910.181 203.419C909.952 203.475 909.729 203.557 909.518 203.663L856.228 141.086C856.182 141.03 856.13 140.978 856.073 140.933C855.843 140.743 855.554 140.639 855.256 140.639C854.958 140.639 854.669 140.744 854.44 140.935C854.211 141.125 854.055 141.39 854 141.684C853.945 141.977 853.995 142.28 854.14 142.541L890.594 209.657C890.242 209.671 889.895 209.746 889.569 209.878L856.43 222.841C856.142 222.953 855.832 222.994 855.526 222.96C855.219 222.927 854.925 222.82 854.669 222.648C854.413 222.477 854.202 222.246 854.054 221.975C853.906 221.705 853.825 221.402 853.819 221.094L852.387 141.288C852.382 140.928 852.478 140.574 852.664 140.266C852.851 139.958 853.12 139.709 853.441 139.546C853.762 139.384 854.122 139.315 854.48 139.347C854.839 139.379 855.181 139.512 855.467 139.729L856.428 140.462L928.588 195.541C928.874 195.76 929.093 196.055 929.219 196.393C929.346 196.73 929.375 197.097 929.302 197.45C929.23 197.804 929.06 198.13 928.811 198.391C928.563 198.652 928.246 198.838 927.896 198.928V198.928Z" fill="#6C63FF"/>
<path d="M929.367 194.524L857.184 139.428L856.246 138.713C855.769 138.347 855.198 138.124 854.599 138.069C854.001 138.014 853.399 138.128 852.862 138.4C852.326 138.672 851.877 139.09 851.567 139.606C851.257 140.121 851.099 140.714 851.111 141.315L852.543 221.121C852.554 221.634 852.688 222.138 852.934 222.588C853.179 223.039 853.53 223.424 853.956 223.711C854.382 223.999 854.873 224.179 855.385 224.235C855.897 224.291 856.415 224.221 856.894 224.032L890.033 211.069C890.271 210.973 890.526 210.927 890.783 210.934C891.039 210.941 891.291 211.001 891.523 211.11C891.841 211.254 892.113 211.481 892.311 211.768C892.509 212.055 892.626 212.391 892.648 212.739L893.238 223.27C893.265 223.966 893.523 224.633 893.973 225.165C894.422 225.697 895.036 226.063 895.718 226.206L895.743 226.211C896.425 226.371 897.142 226.297 897.777 226.001C898.412 225.704 898.93 225.203 899.246 224.577L909.267 205.617C909.392 205.38 909.563 205.171 909.772 205.003C909.987 204.842 910.232 204.723 910.492 204.655L928.207 200.163C928.789 200.016 929.318 199.707 929.733 199.272C930.148 198.838 930.432 198.295 930.554 197.707C930.675 197.118 930.628 196.507 930.418 195.945C930.208 195.382 929.843 194.89 929.367 194.524L929.367 194.524ZM927.896 198.928L910.181 203.419C909.952 203.475 909.729 203.557 909.518 203.663C909.328 203.756 909.149 203.869 908.983 204.001C908.812 204.134 908.655 204.285 908.515 204.452L908.514 204.458C908.368 204.631 908.242 204.821 908.138 205.022L898.117 223.982C897.93 224.36 897.621 224.663 897.239 224.841C896.858 225.019 896.427 225.062 896.018 224.963L896.005 224.96C895.594 224.879 895.223 224.661 894.952 224.342C894.68 224.023 894.525 223.622 894.51 223.203L893.921 212.665C893.89 212.123 893.722 211.598 893.431 211.139C893.14 210.681 892.737 210.304 892.26 210.045L892.254 210.044C892.19 210.01 892.126 209.975 892.06 209.948C891.602 209.733 891.099 209.633 890.594 209.657C890.242 209.671 889.895 209.746 889.569 209.878L856.43 222.841C856.142 222.953 855.832 222.994 855.526 222.96C855.219 222.927 854.925 222.82 854.669 222.648C854.413 222.477 854.202 222.246 854.054 221.975C853.906 221.705 853.825 221.402 853.819 221.094L852.387 141.288C852.382 140.928 852.478 140.574 852.664 140.266C852.851 139.958 853.12 139.709 853.441 139.546C853.762 139.384 854.122 139.315 854.48 139.347C854.839 139.379 855.181 139.512 855.467 139.729L856.428 140.462L928.588 195.541C928.874 195.76 929.093 196.055 929.219 196.393C929.346 196.73 929.375 197.097 929.302 197.45C929.23 197.804 929.06 198.13 928.811 198.391C928.563 198.652 928.246 198.838 927.896 198.928V198.928Z" fill="#918AFF"/>
<path d="M909.72 203.898L908.748 204.727L908.514 204.458L908.515 204.452L855.265 141.93L892.254 210.044L892.26 210.045L892.356 210.23L891.236 210.843L890.594 209.657L854.14 142.541C853.995 142.28 853.945 141.977 854 141.684C854.055 141.39 854.211 141.125 854.44 140.935C854.669 140.744 854.958 140.639 855.256 140.639C855.554 140.639 855.843 140.743 856.073 140.933C856.129 140.978 856.181 141.03 856.228 141.086L909.518 203.663L909.72 203.898Z" fill="#918AFF"/>
<path d="M104.464 258.641L162.698 253.781L163.455 253.719C163.84 253.686 164.227 253.763 164.571 253.94C164.914 254.118 165.201 254.389 165.398 254.722C165.594 255.055 165.693 255.437 165.682 255.824C165.672 256.211 165.552 256.587 165.337 256.909L136.903 299.686C136.719 299.961 136.472 300.188 136.183 300.347C135.893 300.506 135.57 300.593 135.24 300.602C134.908 300.61 134.58 300.537 134.283 300.39C133.986 300.243 133.729 300.026 133.535 299.757L120.058 281.244C119.963 281.109 119.84 280.995 119.699 280.91C119.557 280.825 119.4 280.771 119.236 280.749C119.014 280.717 118.788 280.746 118.581 280.833C118.374 280.92 118.195 281.062 118.062 281.243L114.092 286.749C113.836 287.117 113.465 287.389 113.037 287.522C112.609 287.654 112.149 287.64 111.73 287.481L111.715 287.475C111.289 287.326 110.926 287.037 110.685 286.656C110.443 286.275 110.336 285.824 110.381 285.375L111.519 271.621C111.533 271.45 111.512 271.277 111.457 271.114C111.397 270.952 111.305 270.803 111.188 270.675L103.139 262.101C102.874 261.819 102.695 261.468 102.62 261.089C102.545 260.709 102.579 260.316 102.718 259.955C102.856 259.594 103.093 259.279 103.402 259.047C103.711 258.814 104.079 258.674 104.464 258.641L104.464 258.641ZM103.735 261.538L111.784 270.113C111.889 270.223 111.982 270.344 112.06 270.475L162.642 255.011C162.687 254.997 162.733 254.988 162.779 254.982C162.97 254.959 163.162 255.003 163.324 255.106C163.485 255.21 163.606 255.366 163.664 255.549C163.722 255.732 163.715 255.93 163.643 256.108C163.571 256.286 163.439 256.433 163.27 256.524L120.244 280.283C120.43 280.413 120.592 280.574 120.723 280.758L134.2 299.272C134.317 299.432 134.471 299.562 134.649 299.65C134.826 299.738 135.023 299.782 135.221 299.778C135.42 299.774 135.614 299.722 135.788 299.626C135.962 299.531 136.11 299.395 136.221 299.23L164.655 256.453C164.782 256.259 164.853 256.034 164.858 255.802C164.864 255.571 164.805 255.342 164.687 255.143C164.569 254.943 164.398 254.781 164.192 254.675C163.987 254.568 163.755 254.521 163.525 254.54L162.75 254.605L104.534 259.462C104.303 259.482 104.082 259.566 103.897 259.705C103.711 259.844 103.568 260.033 103.485 260.25C103.402 260.467 103.381 260.702 103.425 260.93C103.469 261.158 103.577 261.369 103.735 261.538V261.538Z" fill="#6C63FF"/>
<path d="M104.464 258.641L162.698 253.781L163.455 253.719C163.84 253.686 164.227 253.763 164.571 253.94C164.914 254.118 165.201 254.389 165.398 254.722C165.594 255.055 165.693 255.437 165.682 255.824C165.672 256.211 165.552 256.587 165.337 256.909L136.903 299.686C136.719 299.961 136.472 300.188 136.183 300.347C135.893 300.506 135.57 300.593 135.24 300.602C134.908 300.61 134.58 300.537 134.283 300.39C133.986 300.243 133.729 300.026 133.535 299.757L120.058 281.244C119.963 281.109 119.84 280.995 119.699 280.91C119.557 280.825 119.4 280.771 119.236 280.749C119.014 280.717 118.788 280.746 118.581 280.833C118.374 280.92 118.195 281.062 118.062 281.243L114.092 286.749C113.836 287.117 113.465 287.389 113.037 287.522C112.609 287.654 112.149 287.64 111.73 287.481L111.715 287.475C111.289 287.326 110.926 287.037 110.685 286.656C110.443 286.275 110.336 285.824 110.381 285.375L111.519 271.621C111.533 271.45 111.512 271.277 111.457 271.114C111.397 270.952 111.305 270.803 111.188 270.675L103.139 262.101C102.874 261.819 102.695 261.468 102.62 261.089C102.545 260.709 102.579 260.316 102.718 259.955C102.856 259.594 103.093 259.279 103.402 259.047C103.711 258.814 104.079 258.674 104.464 258.641L104.464 258.641ZM103.735 261.538L111.784 270.113C111.889 270.223 111.982 270.344 112.06 270.475C112.13 270.591 112.188 270.715 112.232 270.844C112.279 270.975 112.312 271.112 112.33 271.25L112.328 271.254C112.348 271.399 112.35 271.545 112.337 271.69L111.2 285.444C111.17 285.713 111.233 285.985 111.378 286.214C111.523 286.443 111.742 286.615 111.998 286.703L112.006 286.706C112.257 286.804 112.534 286.815 112.791 286.736C113.049 286.657 113.273 286.493 113.426 286.271L117.397 280.762C117.602 280.478 117.875 280.252 118.192 280.104C118.508 279.956 118.857 279.891 119.206 279.916L119.209 279.918C119.256 279.922 119.303 279.925 119.348 279.933C119.671 279.975 119.978 280.095 120.244 280.283C120.43 280.413 120.592 280.574 120.723 280.758L134.2 299.272C134.317 299.432 134.471 299.562 134.649 299.65C134.826 299.738 135.023 299.782 135.221 299.778C135.42 299.774 135.614 299.722 135.788 299.626C135.962 299.531 136.11 299.395 136.221 299.23L164.655 256.453C164.782 256.259 164.853 256.034 164.858 255.802C164.864 255.571 164.805 255.342 164.687 255.143C164.569 254.943 164.398 254.781 164.192 254.675C163.987 254.568 163.755 254.521 163.525 254.54L162.75 254.605L104.534 259.462C104.303 259.482 104.082 259.566 103.897 259.705C103.711 259.844 103.568 260.033 103.485 260.25C103.402 260.467 103.381 260.702 103.425 260.93C103.469 261.158 103.577 261.369 103.735 261.538V261.538Z" fill="#918AFF"/>
<path d="M111.869 270.533L112.109 271.319L112.328 271.254L112.33 271.25L162.871 255.803L119.209 279.918L119.206 279.916L119.089 279.984L119.484 280.704L120.244 280.283L163.27 256.524C163.439 256.433 163.571 256.286 163.643 256.108C163.715 255.93 163.722 255.732 163.664 255.549C163.606 255.367 163.485 255.21 163.324 255.106C163.162 255.003 162.97 254.959 162.779 254.982C162.733 254.988 162.687 254.997 162.642 255.011L112.06 270.475L111.869 270.533Z" fill="#918AFF"/>
<path d="M835.467 12.641L777.233 7.78132L776.477 7.71854C776.091 7.68582 775.704 7.76264 775.36 7.94015C775.017 8.11765 774.73 8.38864 774.533 8.72196C774.337 9.05528 774.238 9.43739 774.249 9.82434C774.26 10.2113 774.379 10.5874 774.594 10.9093L803.028 53.6864C803.212 53.9611 803.459 54.1876 803.748 54.3468C804.038 54.5061 804.361 54.5934 804.691 54.6015C805.023 54.6098 805.351 54.5373 805.648 54.3902C805.945 54.2431 806.202 54.0259 806.396 53.7573L819.873 35.2436C819.969 35.1089 820.091 34.9955 820.232 34.9104C820.374 34.8254 820.531 34.7706 820.695 34.7494C820.917 34.7174 821.143 34.7463 821.35 34.8332C821.557 34.92 821.737 35.0616 821.869 35.2426L825.839 40.7486C826.095 41.1169 826.466 41.3891 826.894 41.5217C827.322 41.6544 827.782 41.64 828.201 41.4808L828.216 41.4752C828.642 41.3256 829.005 41.0371 829.246 40.6562C829.488 40.2753 829.595 39.8241 829.55 39.3751L828.412 25.6214C828.398 25.4498 828.419 25.2771 828.474 25.1139C828.534 24.9516 828.626 24.8027 828.743 24.6753L836.792 16.1006C837.057 15.8188 837.237 15.4681 837.311 15.0886C837.386 14.7092 837.352 14.3164 837.213 13.9553C837.075 13.5942 836.838 13.2794 836.529 13.0469C836.22 12.8145 835.852 12.6738 835.467 12.641L835.467 12.641ZM836.196 15.5383L828.147 24.113C828.042 24.2229 827.949 24.3444 827.871 24.475L777.289 9.01143C777.245 8.99729 777.199 8.98759 777.152 8.98243C776.962 8.95888 776.769 9.00265 776.607 9.10618C776.446 9.2097 776.326 9.36648 776.267 9.54938C776.209 9.73229 776.217 9.92982 776.288 10.1078C776.36 10.2858 776.492 10.4331 776.661 10.5242L819.687 34.2834C819.502 34.413 819.339 34.5737 819.208 34.7584L805.731 53.2721C805.614 53.4324 805.46 53.5621 805.283 53.6502C805.105 53.7383 804.908 53.7821 804.71 53.7779C804.512 53.7737 804.317 53.7217 804.143 53.6262C803.969 53.5308 803.821 53.3947 803.71 53.2295L775.276 10.4526C775.149 10.2591 775.078 10.0338 775.073 9.80224C775.067 9.57068 775.127 9.34218 775.244 9.1428C775.362 8.94341 775.534 8.78116 775.739 8.67451C775.944 8.56785 776.176 8.5211 776.407 8.53957L777.181 8.60451L835.397 13.4621C835.628 13.4816 835.849 13.5658 836.035 13.7051C836.22 13.8444 836.363 14.0332 836.446 14.2499C836.53 14.4665 836.55 14.7023 836.506 14.9301C836.462 15.158 836.354 15.3688 836.196 15.5383V15.5383Z" fill="#6C63FF"/>
<path d="M835.467 12.641L777.233 7.78132L776.477 7.71854C776.091 7.68582 775.704 7.76264 775.36 7.94015C775.017 8.11765 774.73 8.38864 774.533 8.72196C774.337 9.05528 774.238 9.43739 774.249 9.82434C774.26 10.2113 774.379 10.5874 774.594 10.9093L803.028 53.6864C803.212 53.9611 803.459 54.1876 803.748 54.3468C804.038 54.5061 804.361 54.5934 804.691 54.6015C805.023 54.6098 805.351 54.5373 805.648 54.3902C805.945 54.2431 806.202 54.0259 806.396 53.7573L819.873 35.2436C819.969 35.1089 820.091 34.9955 820.232 34.9104C820.374 34.8254 820.531 34.7706 820.695 34.7494C820.917 34.7174 821.143 34.7463 821.35 34.8332C821.557 34.92 821.737 35.0616 821.869 35.2426L825.839 40.7486C826.095 41.1169 826.466 41.3891 826.894 41.5217C827.322 41.6544 827.782 41.64 828.201 41.4808L828.216 41.4752C828.642 41.3256 829.005 41.0371 829.246 40.6562C829.488 40.2753 829.595 39.8241 829.55 39.3751L828.412 25.6214C828.398 25.4498 828.419 25.2771 828.474 25.1139C828.534 24.9516 828.626 24.8027 828.743 24.6753L836.792 16.1006C837.057 15.8188 837.237 15.4681 837.311 15.0886C837.386 14.7092 837.352 14.3164 837.213 13.9553C837.075 13.5942 836.838 13.2794 836.529 13.0469C836.22 12.8145 835.852 12.6738 835.467 12.641L835.467 12.641ZM836.196 15.5383L828.147 24.113C828.042 24.2229 827.949 24.3444 827.871 24.475C827.801 24.5913 827.743 24.7149 827.699 24.8435C827.652 24.9753 827.619 25.1117 827.601 25.2504L827.603 25.2542C827.583 25.3988 827.581 25.545 827.594 25.6902L828.731 39.4439C828.761 39.7134 828.698 39.9849 828.553 40.2138C828.408 40.4427 828.189 40.6154 827.933 40.7034L827.925 40.7062C827.674 40.8044 827.397 40.8149 827.14 40.736C826.882 40.6571 826.658 40.4933 826.505 40.2714L822.534 34.7615C822.329 34.4781 822.056 34.2518 821.739 34.1039C821.423 33.9559 821.074 33.8914 820.726 33.9164L820.722 33.9177C820.675 33.9216 820.628 33.9254 820.583 33.933C820.26 33.9751 819.953 34.0954 819.687 34.2834C819.502 34.413 819.339 34.5737 819.208 34.7584L805.731 53.2721C805.614 53.4324 805.46 53.5621 805.283 53.6502C805.105 53.7382 804.908 53.7821 804.71 53.7779C804.512 53.7737 804.317 53.7217 804.143 53.6262C803.969 53.5308 803.821 53.3947 803.711 53.2295L775.276 10.4526C775.149 10.2591 775.078 10.0338 775.073 9.80224C775.067 9.57068 775.127 9.34218 775.244 9.1428C775.362 8.94341 775.534 8.78116 775.739 8.67451C775.944 8.56785 776.176 8.5211 776.407 8.53957L777.181 8.60451L835.397 13.4621C835.628 13.4816 835.849 13.5658 836.035 13.7051C836.22 13.8444 836.363 14.0332 836.446 14.2499C836.53 14.4665 836.55 14.7023 836.506 14.9301C836.462 15.158 836.354 15.3688 836.196 15.5383V15.5383Z" fill="#918AFF"/>
<path d="M828.063 24.5326L827.823 25.319L827.603 25.2543L827.601 25.2504L777.06 9.80286L820.722 33.9178L820.726 33.9164L820.842 33.9837L820.447 34.7037L819.687 34.2835L776.661 10.5242C776.492 10.4332 776.36 10.2859 776.288 10.1079C776.217 9.92987 776.209 9.73233 776.267 9.54942C776.326 9.36652 776.446 9.20974 776.607 9.10622C776.769 9.00269 776.962 8.95892 777.152 8.98247C777.199 8.98763 777.245 8.99734 777.289 9.01148L827.871 24.475L828.063 24.5326Z" fill="#918AFF"/>
</svg>
